<svg width="175" height="32" viewBox="0 0 175 32" fill="none" xmlns="http://www.w3.org/2000/svg">
<path d="M43.6641 29.8667V7.40269H49.8486C51.3647 7.40269 52.6774 7.56909 53.7867 7.90189C54.8961 8.23469 55.7558 8.83559 56.3659 9.70456C56.9946 10.5551 57.3089 11.7661 57.3089 13.3376C57.3089 14.2621 57.2349 15.0848 57.087 15.8059C56.9391 16.527 56.6618 17.1556 56.255 17.6918C55.8667 18.2095 55.3028 18.6439 54.5633 18.9952L57.6417 29.8667H52.511L50.0427 19.7995H48.6283V29.8667H43.6641ZM48.6283 16.943H50.015C50.7176 16.943 51.263 16.8228 51.6513 16.5824C52.0395 16.3236 52.3076 15.9631 52.4555 15.5008C52.6219 15.0201 52.7051 14.447 52.7051 13.7814C52.7051 12.8199 52.5295 12.0711 52.1782 11.535C51.8269 10.9988 51.1798 10.7307 50.2369 10.7307H48.6283V16.943ZM59.4612 29.8667V7.40269H69.5561V10.7862H64.4254V16.3606H68.3358V19.7995H64.4254V26.511H69.6116V29.8667H59.4612ZM76.9961 30.1995C75.5909 30.1995 74.4169 29.9499 73.474 29.4507C72.531 28.9515 71.8192 28.1841 71.3385 27.1488C70.8577 26.095 70.5897 24.736 70.5342 23.072L74.7774 22.4342C74.7958 23.3957 74.879 24.1722 75.027 24.7638C75.1934 25.3553 75.4153 25.7807 75.6926 26.0395C75.9883 26.2983 76.3397 26.4278 76.7465 26.4278C77.2641 26.4278 77.5969 26.2522 77.7449 25.9008C77.9113 25.5495 77.9945 25.1798 77.9945 24.7915C77.9945 23.8671 77.7726 23.0906 77.3289 22.4619C76.8852 21.8149 76.2842 21.1677 75.5262 20.5206L73.5849 18.8288C72.7344 18.1078 72.0133 17.2943 71.4217 16.3883C70.8485 15.4639 70.562 14.3268 70.562 12.9771C70.562 11.0727 71.1258 9.62136 72.2537 8.62296C73.3814 7.60606 74.9161 7.09763 76.8574 7.09763C78.0592 7.09763 79.0206 7.301 79.7417 7.70776C80.4811 8.11452 81.0358 8.65069 81.4057 9.31629C81.794 9.9634 82.0527 10.6567 82.1822 11.3963C82.3301 12.1174 82.4133 12.8107 82.4318 13.4763L78.1609 14.0032C78.1423 13.3376 78.0961 12.7645 78.0222 12.2838C77.9668 11.7846 77.8373 11.4055 77.634 11.1467C77.4305 10.8694 77.1162 10.7307 76.691 10.7307C76.2288 10.7307 75.8868 10.9248 75.6649 11.3131C75.4614 11.7014 75.3598 12.0896 75.3598 12.4779C75.3598 13.3099 75.554 13.994 75.9422 14.5302C76.3489 15.0479 76.8758 15.5933 77.523 16.1664L79.3812 17.8027C80.361 18.6347 81.1838 19.5776 81.8494 20.6315C82.5334 21.6854 82.8756 22.9888 82.8756 24.5419C82.8756 25.5958 82.6352 26.5573 82.1545 27.4262C81.6737 28.2767 80.9897 28.9515 80.1022 29.4507C79.2331 29.9499 78.1978 30.1995 76.9961 30.1995ZM84.4749 29.8667V7.40269H89.4392V29.8667H84.4749ZM91.957 29.8667V7.40269H96.9212V26.511H102.08V29.8667H91.957ZM103.448 29.8667V7.40269H108.413V29.8667H103.448ZM110.93 29.8667V7.40269H121.025V10.7862H115.895V16.3606H119.805V19.7995H115.895V26.511H121.081V29.8667H110.93ZM111.513 5.43363L114.147 0.108826H117.836L120.554 5.43363H117.226L116.006 2.13336L114.813 5.43363H111.513ZM122.502 29.8667V7.40269H125.997L130.601 18.2187V7.40269H134.705V29.8667H131.349L126.746 18.2187V29.8667H122.502ZM143.651 30.1995C141.95 30.1995 140.6 29.8944 139.602 29.2843C138.622 28.6556 137.928 27.7867 137.522 26.6774C137.115 25.5495 136.911 24.2277 136.911 22.7115V14.6134C136.911 13.0603 137.115 11.7291 137.522 10.6198C137.928 9.49193 138.622 8.62296 139.602 8.01283C140.6 7.40269 141.95 7.09763 143.651 7.09763C145.315 7.09763 146.609 7.37496 147.533 7.92963C148.476 8.4658 149.142 9.22386 149.53 10.2038C149.918 11.1837 150.112 12.3115 150.112 13.5872V15.5286H145.259V13.2822C145.259 12.8384 145.231 12.4132 145.176 12.0064C145.139 11.5997 145.01 11.2669 144.788 11.008C144.566 10.7307 144.187 10.592 143.651 10.592C143.133 10.592 142.745 10.7307 142.486 11.008C142.245 11.2854 142.088 11.6367 142.014 12.0619C141.959 12.4687 141.931 12.9031 141.931 13.3654V23.9318C141.931 24.431 141.968 24.8933 142.042 25.3184C142.134 25.7253 142.301 26.0581 142.541 26.3168C142.8 26.5573 143.17 26.6774 143.651 26.6774C144.168 26.6774 144.538 26.5479 144.76 26.2891C144.982 26.0118 145.12 25.6604 145.176 25.2352C145.231 24.8101 145.259 24.3755 145.259 23.9318V21.5744H150.112V23.5158C150.112 24.7915 149.918 25.9377 149.53 26.9547C149.16 27.9531 148.504 28.7482 147.561 29.3398C146.636 29.913 145.333 30.1995 143.651 30.1995ZM152.039 29.8667V7.40269H157.004V29.8667H152.039ZM158.44 29.8667L162.683 7.40269H168.34L172.528 29.8667H167.952L167.203 25.1243H163.903L163.126 29.8667H158.44ZM164.347 22.1568H166.732L165.539 13.3931L164.347 22.1568Z" fill="#033C08"/>
<path d="M9.6 28.84V14.4H12.16C12.3467 14.4 12.5333 14.42 12.72 14.46C12.9067 14.5 13.0933 14.5467 13.28 14.6L24.36 18.72C24.7333 18.8533 25.0333 19.0933 25.26 19.44C25.4867 19.7867 25.6 20.1467 25.6 20.52C25.6 21.08 25.4067 21.5333 25.02 21.88C24.6333 22.2267 24.1867 22.4 23.68 22.4H19.48C19.3467 22.4 19.2467 22.3933 19.18 22.38C19.1133 22.3667 19.0267 22.3333 18.92 22.28L16.36 21.28L15.84 22.84L18.92 23.92C18.9733 23.9467 19.0533 23.9667 19.16 23.98C19.2667 23.9933 19.36 24 19.44 24H30.4C31.2533 24 32 24.3067 32.64 24.92C33.28 25.5333 33.6 26.2933 33.6 27.2L20.84 32L9.6 28.84ZM0 32V14.4H6.4V32H0ZM24 17.6L17.36 11.12C16.5333 10.32 15.8333 9.43333 15.26 8.46C14.6867 7.48667 14.4 6.42667 14.4 5.28C14.4 3.81333 14.9133 2.56667 15.94 1.54C16.9667 0.513333 18.2133 0 19.68 0C20.5333 0 21.3333 0.18 22.08 0.54C22.8267 0.9 23.4667 1.38667 24 2C24.5333 1.38667 25.1733 0.9 25.92 0.54C26.6667 0.18 27.4667 0 28.32 0C29.7867 0 31.0333 0.513333 32.06 1.54C33.0867 2.56667 33.6 3.81333 33.6 5.28C33.6 6.42667 33.32 7.48667 32.76 8.46C32.2 9.43333 31.5067 10.32 30.68 11.12L24 17.6Z" fill="#3BD94B"/>
</svg>
